<svg xmlns="http://www.w3.org/2000/svg" width="60.296" height="73.008" viewBox="0 0 60.296 73.008">
  <g id="Grupo_1" data-name="Grupo 1" transform="translate(-4.851 -0.57)">
    <path id="Caminho_2" data-name="Caminho 2" d="M4.865,37c0-5.84.014-11.694-.014-17.534A1.164,1.164,0,0,1,5.5,18.318Q19.849,9.6,34.18.856a1.33,1.33,0,0,1,1.666.014q14.346,8.781,28.735,17.5a1.045,1.045,0,0,1,.565,1.043q-.022,17.65,0,35.285a1.024,1.024,0,0,1-.594,1.014Q50.011,64.543,35.5,73.412A.848.848,0,0,1,34.47,73.4Q19.929,64.529,5.358,55.675a1,1,0,0,1-.507-1C4.88,48.777,4.865,42.88,4.865,37Zm58.4.029c0-5.434-.015-10.868.014-16.3a1.425,1.425,0,0,0-.8-1.42Q49.07,11.152,35.658,2.972a1.065,1.065,0,0,0-1.29-.014Q20.892,11.217,7.358,19.4a1.132,1.132,0,0,0-.623,1.145q.022,16.476,0,32.966a1.153,1.153,0,0,0,.638,1.145q13.455,8.173,26.88,16.375a1.261,1.261,0,0,0,1.536-.029q13.368-8.173,26.764-16.3a1.26,1.26,0,0,0,.724-1.246Q63.256,45.242,63.263,37.025Z" transform="translate(0 0)"/>
    <path id="Caminho_3" data-name="Caminho 3" d="M36.245,39.666a9.94,9.94,0,0,1,1.362,5.782c-.043,2.637-.014,5.26-.014,7.9V54.2a6.181,6.181,0,0,1-.681.058c-3.405,0-6.811-.014-10.216.015-.565,0-.754-.159-.739-.739.029-1.666.015-3.318.015-5.057-.551.072-1.029.13-1.493.188-4.144.493-7.086-1.2-8.912-4.927A27.3,27.3,0,0,0,13.1,40c-.261-.377-.754-.58-1.116-.9a1.973,1.973,0,0,1-.333-.594,2.365,2.365,0,0,1,.638-.261,5.125,5.125,0,0,1,4.651,2.405,13.887,13.887,0,0,0,2.217,2.623,6.41,6.41,0,0,0,6.361.957.725.725,0,0,0,.42-.478,7.191,7.191,0,0,1,1.246-3.883,46.777,46.777,0,0,1-4.825-1.522c-4.347-1.884-6.492-5.3-6.593-10a22.577,22.577,0,0,1,.652-6.753,7.517,7.517,0,0,1,1.884-3.376,1.009,1.009,0,0,0,.13-.87,9.926,9.926,0,0,1-.043-5.985c.188-.7.522-.782,1.145-.58a9.084,9.084,0,0,1,4.2,3.188c.232.275.435.565.7.9,2.275-1.319,4.782-1.348,7.3-1.348,2.492,0,4.985,0,7.245,1.319.667-.754,1.3-1.522,2.014-2.246a7.3,7.3,0,0,1,3-1.84c.58-.188.913-.13,1.13.536a8.511,8.511,0,0,1-.043,5.956.9.9,0,0,0,.246,1.13,7.172,7.172,0,0,1,1.956,3.97,24.231,24.231,0,0,1,.145,8.492,9.926,9.926,0,0,1-5,6.854A13.911,13.911,0,0,1,36.245,39.666Z" transform="translate(3.094 4.59)"/>
  </g>
</svg>
