<svg xmlns="http://www.w3.org/2000/svg" width="76.143" height="59.222" viewBox="0 0 76.143 59.222">
  <path id="Caminho_1" data-name="Caminho 1" d="M73.8,24.254,39.962,7.333a4.247,4.247,0,0,0-3.782,0L2.339,24.254a4.233,4.233,0,0,0,0,7.572l1.891.946V47.663a4.228,4.228,0,1,0,4.23,0V34.884l6.345,3.173V51.306c0,8.177,10.417,14.805,23.266,14.805s23.266-6.629,23.266-14.805V38.059L73.8,31.826a4.233,4.233,0,0,0,0-7.572ZM54.992,51.306c0,3.913-7.39,8.46-16.921,8.46s-16.921-4.547-16.921-8.46V41.229l15.03,7.517a4.247,4.247,0,0,0,3.782,0l15.03-7.517ZM38.071,42.6,8.955,28.04,38.071,13.482,67.188,28.04Z" transform="translate(0 -6.889)"/>
</svg>
