<?xml version="1.0" encoding="iso-8859-1"?>
<!-- Generator: Adobe Illustrator 16.0.0, SVG Export Plug-In . SVG Version: 6.00 Build 0)  -->
<!DOCTYPE svg PUBLIC "-//W3C//DTD SVG 1.1//EN" "http://www.w3.org/Graphics/SVG/1.1/DTD/svg11.dtd">
<svg version="1.1" id="Capa_1" xmlns="http://www.w3.org/2000/svg" xmlns:xlink="http://www.w3.org/1999/xlink" x="0px" y="0px"
	 width="753.352px" height="753.352px" viewBox="0 0 753.352 753.352" style="enable-background:new 0 0 753.352 753.352;"
	 xml:space="preserve">
<g>
	<g id="_x32__35_">
		<g>
			<path d="M494.368,0.121v0.683c-3.036,0-15.559-1.177-47.077-0.683H164.83c-51.997,0-94.154,42.157-94.154,94.154v564.923
				c0,51.996,42.157,94.153,94.154,94.153h423.692c51.997,0,94.154-42.157,94.154-94.153v-470.77L494.368,0.121z M635.599,659.198
				c0,25.986-21.066,47.077-47.077,47.077H164.83c-26.01,0-47.077-21.091-47.077-47.077V94.275c0-26.01,21.067-47.077,47.077-47.077
				h281.802c-0.424,56.375,0.659,94.154,0.659,94.154c0,51.997,42.157,94.154,94.154,94.154c0,0,39.332,0,94.153,0V659.198z
				 M541.445,188.429c-26.011,0-47.077-21.09-47.077-47.077c0,0,0-38.109,0-94.154l141.23,141.23H541.445z"/>
		</g>
	</g>
</g>
<g>
</g>
<g>
</g>
<g>
</g>
<g>
</g>
<g>
</g>
<g>
</g>
<g>
</g>
<g>
</g>
<g>
</g>
<g>
</g>
<g>
</g>
<g>
</g>
<g>
</g>
<g>
</g>
<g>
</g>
</svg>
