<?xml version="1.0" encoding="iso-8859-1"?>
<!-- Generator: Adobe Illustrator 16.0.0, SVG Export Plug-In . SVG Version: 6.00 Build 0)  -->
<!DOCTYPE svg PUBLIC "-//W3C//DTD SVG 1.1//EN" "http://www.w3.org/Graphics/SVG/1.1/DTD/svg11.dtd">
<svg version="1.1" id="Capa_1" xmlns="http://www.w3.org/2000/svg" xmlns:xlink="http://www.w3.org/1999/xlink" x="0px" y="0px"
	 width="612px" height="612px" viewBox="0 0 612 612" style="enable-background:new 0 0 612 612;" xml:space="preserve">
<g>
	<g id="Graduation_x5F_Cap">
		<g>
			<path d="M593.198,207.57l-272-136C316.608,69.275,311.457,68,306,68s-10.608,1.275-15.198,3.57l-272,136
				C7.65,213.146,0,224.689,0,238s7.65,24.854,18.802,30.43L34,276.029v119.697C23.868,401.608,17,412.454,17,425
				c0,18.785,15.232,34,34,34s34-15.215,34-34c0-12.546-6.868-23.392-17-29.291V293.012l51,25.5V425c0,65.722,83.725,119,187,119
				c103.275,0,187-53.278,187-119V318.529l100.198-50.099C604.35,262.854,612,251.311,612,238S604.35,213.146,593.198,207.57z
				 M442,425c0,31.45-59.398,68-136,68c-76.602,0-136-36.55-136-68v-80.988l120.802,60.418c4.59,2.295,9.741,3.57,15.198,3.57
				s10.608-1.275,15.198-3.57L442,344.012V425z M306,355.011L71.978,238L306,120.989L540.022,238L306,355.011z"/>
		</g>
	</g>
</g>
<g>
</g>
<g>
</g>
<g>
</g>
<g>
</g>
<g>
</g>
<g>
</g>
<g>
</g>
<g>
</g>
<g>
</g>
<g>
</g>
<g>
</g>
<g>
</g>
<g>
</g>
<g>
</g>
<g>
</g>
</svg>
